/* XPM */
static char *c101b315179845edcfc2308978eeff3ceE8CNBFxXGQskDki[] = {
/* columns rows colors chars-per-pixel */
"64 64 6 1 ",
"  c None",
". c #8A0303",
"X c #9F3E00",
"o c #C70000",
"O c #18E900",
"+ c white",
/* pixels */
"                                                                ",
"                                                                ",
"                                                                ",
"                                                                ",
"                OOOO              XXXX                          ",
"                OOOO              XXXX                          ",
"                OOOOOOOO          XXXX                          ",
"                OOOOOOOO          XXXX                          ",
"                  OOOOOOOO      XXXX                            ",
"                  OOOOOOOO      XXXX                            ",
"                  OOOOOOOOOO    XXXX                            ",
"                  OOOOOOOOOO    XXXX                            ",
"                    OOOOOOOOOOXXXXXX                            ",
"                    OOOOOOOOOOXXXXXX                            ",
"                      OOOOOOOOXXXX                              ",
"                      OOOOOOOOXXXX                              ",
"                          OOOOXXXX                              ",
"                          OOOOXXXX                              ",
"            oooooooooooooooooooooooooooooooooo......            ",
"            oooooooooooooooooooooooooooooooooo......            ",
"            oooooooooooooooooooooooooooooooooo......            ",
"            oooooooooooooooooooooooooooooooooo......            ",
"            oooooooooooooooooooooooooooooooooo......            ",
"            oooooooooooooooooooooooooooooooooo......            ",
"            oooooo++++oooooooooooooooooooooooo......            ",
"            oooooo++++oooooooooooooooooooooooo......            ",
"            oooooo++++oooooooooooooooooooooooo......            ",
"            oooooo++++oooooooooooooooooooooooo......            ",
"            oooooooooooooooooooooooooooooooooo......            ",
"            oooooooooooooooooooooooooooooooooo......            ",
"            oooooooooooooooooooooooooooooooooo......            ",
"            oooooooooooooooooooooooooooooooooo......            ",
"            oooooooooooooooooooooooooooooooooo......            ",
"            oooooooooooooooooooooooooooooooooo......            ",
"            oooooooooooooooooooooooooooooooooo......            ",
"            oooooooooooooooooooooooooooooooooo......            ",
"            oooooooooooooooooooooooooooooooooo......            ",
"            oooooooooooooooooooooooooooooooooo......            ",
"            oooooooooooooooooooooooooooooooooo......            ",
"            oooooooooooooooooooooooooooooooooo......            ",
"            oooooooooooooooooooooooooooooooooo......            ",
"            oooooooooooooooooooooooooooooooooo......            ",
"            oooooooooooooooooooooooooooooooooo......            ",
"            oooooooooooooooooooooooooooooooooo......            ",
"            oooooooooooooooooooooooooooooooooo......            ",
"            oooooooooooooooooooooooooooooooooo......            ",
"            oooooooooooooooooooooooooooooooooo......            ",
"            oooooooooooooooooooooooooooooooooo......            ",
"            oooooooooooooooooooooooooooooooooo......            ",
"            oooooooooooooooooooooooooooooooooo......            ",
"            ..OOoooooooooooooooooooooooooooooo..OO..            ",
"            ..OOoooooooooooooooooooooooooooooo..OO..            ",
"            ....OOooooooooOOooooooooooOOoooo..OO....            ",
"            ....OOooooooooOOooooooooooOOoooo..OO....            ",
"          OO....OO..........OOooOO..OO........OO....OO          ",
"          OO....OO..........OOooOO..OO........OO....OO          ",
"            OO....OO..........OO..OO........OO....OO            ",
"            OO....OO..........OO..OO........OO....OO            ",
"                                                                ",
"                                                                ",
"                                                                ",
"                                                                ",
"                                                                ",
"                                                                "
};
