/* XPM */
static char *be9e46ca234d403cd8bd489bbc5bbf42R9RRg6BOtZyKC9tw[] = {
/* columns rows colors chars-per-pixel */
"64 64 5 1 ",
"  c None",
". c black",
"X c #888000",
"o c #F5EB47",
"O c white",
/* pixels */
"                                                                ",
"                                                                ",
"                                                                ",
"                                                                ",
"                                                                ",
"                                                                ",
"                                                                ",
"                                                                ",
"                                                                ",
"                                                                ",
"                                                                ",
"                                                                ",
"                                                                ",
"                                                                ",
"                                                          XXXX  ",
"                                                          XXXX  ",
"                                                        XXooooXX",
"                                                        XXooooXX",
"                                                      XXooooXX  ",
"                                                      XXooooXX  ",
"                                                    XXooooXX    ",
"                                                    XXooooXX    ",
"                                                  XXooooXX      ",
"                                                  XXooooXX      ",
"        XXXXXXXXXXXXXXXXXXXXXXXXXXXXXXXXXXXXXXXXXXooooXX        ",
"        XXXXXXXXXXXXXXXXXXXXXXXXXXXXXXXXXXXXXXXXXXooooXX        ",
"        XXooooooooooooooooooXXXXXXXXooooooooooooooooXX          ",
"        XXooooooooooooooooooXXXXXXXXooooooooooooooooXX          ",
"        XXooooooooooooooooooXXXXXXXXooooooooooooooooXX          ",
"        XXooooooooooooooooooXXXXXXXXooooooooooooooooXX          ",
"      OOOOooooooooOOOOooooooXXXXXXXXooooooooooooooooXX          ",
"      OOOOooooooooOOOOooooooXXXXXXXXooooooooooooooooXX          ",
"      OOOOooooooooOOOOooooooXXXXXXXXooooooooooooooooXX          ",
"      OOOOooooooooOOOOooooooXXXXXXXXooooooooooooooooXX          ",
"        XXooooooooooooooooooXXXXXXXXooooooooooooooooXX          ",
"        XXooooooooooooooooooXXXXXXXXooooooooooooooooXX          ",
"        XXoo..ooooooooooooooXXXXXXXXooooooooooooooooXX          ",
"        XXoo..ooooooooooooooXXXXXXXXooooooooooooooooXX          ",
"        XX..oo..ooooooooooooXXXXXXXXooooooooooooooooXX          ",
"        XX..oo..ooooooooooooXXXXXXXXooooooooooooooooXX          ",
"        XXooooooooooooooooooXXXXXXXXooooooooooooooooXX          ",
"        XXooooooooooooooooooXXXXXXXXooooooooooooooooXX          ",
"        XXooooooooooooooooooooooooooooooooooooooooooXX          ",
"        XXooooooooooooooooooooooooooooooooooooooooooXX          ",
"        XXooooooooooooooooooooooooooooooooooooooooooXX          ",
"        XXooooooooooooooooooooooooooooooooooooooooooXX          ",
"        XXooooooooooooooooooooooooooooooooooooooooooXX          ",
"        XXooooooooooooooooooooooooooooooooooooooooooXX          ",
"        XXooooooooooooooooooooooooooooooooooooooooooXX          ",
"        XXooooooooooooooooooooooooooooooooooooooooooXX          ",
"        XXooooooooooooooooooooooooooooooooooooooooooXX          ",
"        XXooooooooooooooooooooooooooooooooooooooooooXX          ",
"        XXooXXooXXooXXooooooooooooooooooooooooooooooXX          ",
"        XXooXXooXXooXXooooooooooooooooooooooooooooooXX          ",
"        XXooXXooXXooXXooooooooooooooooooooooooooooooXX          ",
"        XXooXXooXXooXXooooooooooooooooooooooooooooooXX          ",
"        XXooXXooXXooXXooooooooooooooooooooooooooooooXX          ",
"        XXooXXooXXooXXooooooooooooooooooooooooooooooXX          ",
"        XXooXXXXXXooXXXXXXXXXXXXXXXXXXXXXXXXXXXXXXXXXX          ",
"        XXooXXXXXXooXXXXXXXXXXXXXXXXXXXXXXXXXXXXXXXXXX          ",
"        XXooXX  XXooXX          XXooXX    XXooXX                ",
"        XXooXX  XXooXX          XXooXX    XXooXX                ",
"        XXXXXX  XXXXXX          XXXXXX    XXXXXX                ",
"        XXXXXX  XXXXXX          XXXXXX    XXXXXX                "
};
