/* XPM */
static char *_fefc686278f4b26f502a817c72bae39uX6vbFk7ArbK0cA5[] = {
/* columns rows colors chars-per-pixel */
"64 64 5 1 ",
"  c None",
". c black",
"X c #888000",
"o c #F5EB47",
"O c white",
/* pixels */
"                                                                ",
"                                                                ",
"                                                                ",
"                                                                ",
"                                                                ",
"                                                                ",
"                                                                ",
"                                                                ",
"                                                                ",
"                                                                ",
"                                                                ",
"                                                                ",
"                                                XXXXXX          ",
"                                                XXXXXX          ",
"                                                XXooXX          ",
"                                                XXooXX          ",
"                                                XXooXX          ",
"                                                XXooXX          ",
"                                                XXooXX          ",
"                                                XXooXX          ",
"                                                XXooXX          ",
"                                                XXooXX          ",
"                                                XXooXX          ",
"                                                XXooXX          ",
"        XXXXXXXXXXXXXXXXXXXXXXXXXXXXXXXXXXXXXXXXXXooXX          ",
"        XXXXXXXXXXXXXXXXXXXXXXXXXXXXXXXXXXXXXXXXXXooXX          ",
"        XXooooooooooooooooooXXXXXXXXooooooooooooooooXX          ",
"        XXooooooooooooooooooXXXXXXXXooooooooooooooooXX          ",
"        XXooooooooooooooooooXXXXXXXXooooooooooooooooXX          ",
"        XXooooooooooooooooooXXXXXXXXooooooooooooooooXX          ",
"      OOOOooooooooOOOOooooooXXXXXXXXooooooooooooooooXX          ",
"      OOOOooooooooOOOOooooooXXXXXXXXooooooooooooooooXX          ",
"      OOOOooooooooOOOOooooooXXXXXXXXooooooooooooooooXX          ",
"      OOOOooooooooOOOOooooooXXXXXXXXooooooooooooooooXX          ",
"        XXooooooooooooooooooXXXXXXXXooooooooooooooooXX          ",
"        XXooooooooooooooooooXXXXXXXXooooooooooooooooXX          ",
"        XXoo..ooooooooooooooXXXXXXXXooooooooooooooooXX          ",
"        XXoo..ooooooooooooooXXXXXXXXooooooooooooooooXX          ",
"        XX..oo..ooooooooooooXXXXXXXXooooooooooooooooXX          ",
"        XX..oo..ooooooooooooXXXXXXXXooooooooooooooooXX          ",
"        XXooooooooooooooooooXXXXXXXXooooooooooooooooXX          ",
"        XXooooooooooooooooooXXXXXXXXooooooooooooooooXX          ",
"        XXooooooooooooooooooooooooooooooooooooooooooXX          ",
"        XXooooooooooooooooooooooooooooooooooooooooooXX          ",
"        XXooooooooooooooooooooooooooooooooooooooooooXX          ",
"        XXooooooooooooooooooooooooooooooooooooooooooXX          ",
"        XXooooooooooooooooooooooooooooooooooooooooooXX          ",
"        XXooooooooooooooooooooooooooooooooooooooooooXX          ",
"        XXooooooooooooooooooooooooooooooooooooooooooXX          ",
"        XXooooooooooooooooooooooooooooooooooooooooooXX          ",
"        XXooooooooooooooooooooooooooooooooooooooooooXX          ",
"        XXooooooooooooooooooooooooooooooooooooooooooXX          ",
"        XXooXXooXXooXXooooooooooooooooooooooooooooooXX          ",
"        XXooXXooXXooXXooooooooooooooooooooooooooooooXX          ",
"        XXooXXooXXooXXooooooooooooooooooooooooooooooXX          ",
"        XXooXXooXXooXXooooooooooooooooooooooooooooooXX          ",
"        XXooXXooXXooXXooooooooooooooooooooooooooooooXX          ",
"        XXooXXooXXooXXooooooooooooooooooooooooooooooXX          ",
"        XXooXXXXXXooXXXXXXXXXXXXXXXXXXXXXXXXXXXXXXXXXX          ",
"        XXooXXXXXXooXXXXXXXXXXXXXXXXXXXXXXXXXXXXXXXXXX          ",
"        XXooXX  XXooXX          XXooXX    XXooXX                ",
"        XXooXX  XXooXX          XXooXX    XXooXX                ",
"        XXXXXX  XXXXXX          XXXXXX    XXXXXX                ",
"        XXXXXX  XXXXXX          XXXXXX    XXXXXX                "
};
