/* XPM */
static char *_222ebc51976401dc774977ed22f7ad8EN0hIDkcExeMToWW[] = {
/* columns rows colors chars-per-pixel */
"64 64 7 1 ",
"  c None",
". c #733400",
"X c #297500",
"o c #F00504",
"O c #975200",
"+ c #54F100",
"@ c #59FF00",
/* pixels */
"++++++++++++@@@@++++++++++++++++++++++++oooo++++++++++++++++++++",
"++++++++++++@@@@++++++++++++++++++++++++oooo++++++++++++++++++++",
"++++++++++++++XXXXoooo++++++++@@@@@@++++oooo++++++++++XXXXXXXX++",
"++++++++++++++XXXXoooo++++++++@@@@@@++++oooo++++++++++XXXXXXXX++",
"++++++++++++++++++oooo++++++++++++++++++++++++++++++++++++++++++",
"++++++++++++++++++oooo++++++++++++++++++++++++++++++++++++++++++",
"++++@@@@@@++++++++++++++++++++++++++++++@@@@++++@@@@@@@@++++++++",
"++++@@@@@@++++++++++++++++++++++++++++++@@@@++++@@@@@@@@++++++++",
"++++++++++++++++++++++++++++++++++++++XXXX++++++++++oooo++++++++",
"++++++++++++++++++++++++++++++++++++++XXXX++++++++++oooo++++++++",
"++++++++++++++++++@@@@++++++++++++++++++++++++++++++oooo++++++++",
"++++++++++++++++++@@@@++++++++++++++++++++++++++++++oooo++++++++",
"++++++++++++++++++++++++++++++++++++@@@@@@@@++++++++++++++++++++",
"++++++++++++++++++++++++++++++++++++@@@@@@@@++++++++++++++++++++",
"++++++ooooXXXX++++++++++++++++++++oooo++++++++++++++++++++++++++",
"++++++ooooXXXX++++++++++++++++++++oooo++++++++++++++++++++++++++",
"++++++oooo++++++++++++++++++++++++oooo++++++++++++++XXXXXX++++++",
"++++++oooo++++++++++++++++++++++++oooo++++++++++++++XXXXXX++++++",
"++++++++++++++++@@@@@@++++++++++++++++++++++++++++@@@@++++++++++",
"++++++++++++++++@@@@@@++++++++++++++++++++++++++++@@@@++++++++++",
"++++++++++++++++++++++++++++++++++++++++++++++++++++++++++oooo++",
"++++++++++++++++++++++++++++++++++++++++++++++++++++++++++oooo++",
"      OO  OO  OO  ..OO..      ..    ..    OO    ..  OO    oooo  ",
"      OO  OO  OO  ..OO..      ..    ..    OO    ..  OO    oooo  ",
"      OOOOOOOOOO  ..OO..      ..    ..    OO    ..  OO          ",
"      OOOOOOOOOO  ..OO..      ..    ..    OO    ..  OO          ",
"          OO........OO....................OO......  OO          ",
"          OO........OO....................OO......  OO          ",
"          OOOOOOOOOOOOOOOOOOOOOOOOOOOOOOOOOOOOOOOOOOOO          ",
"          OOOOOOOOOOOOOOOOOOOOOOOOOOOOOOOOOOOOOOOOOOOO          ",
"                        OOOOOOOOOOOOOOOOOOOOOOOOOOOOOO          ",
"                        OOOOOOOOOOOOOOOOOOOOOOOOOOOOOO          ",
"                        OOOO..OOOOOO....OO                      ",
"                        OOOO..OOOOOO....OO                      ",
"                        OOOO..OOOOOO....                        ",
"                        OOOO..OOOOOO....                        ",
"                        OOOO..OOOOOO....                        ",
"                        OOOO..OOOOOO....                        ",
"                        OOOO..OOOOOO....                        ",
"                        OOOO..OOOOOO....                        ",
"                        OOOO..OOOOOO....                        ",
"                        OOOO..OOOOOO....                        ",
"                        OOOO..OOOOOO....                        ",
"                        OOOO..OOOOOO....                        ",
"                        OOOO..OOOOOO....                        ",
"                        OOOO..OOOOOO....                        ",
"                        OOOO..OOOOOO....                        ",
"                        OOOO..OOOOOO....                        ",
"                        OOOO..OOOOOO....                        ",
"                        OOOO..OOOOOO....                        ",
"                        OOOO..OOOOOO....                        ",
"                        OOOO..OOOOOO....                        ",
"                        OOOO..OOOOOO....                        ",
"                        OOOO..OOOOOO....                        ",
"                        OOOO..OOOOOO....                        ",
"                        OOOO..OOOOOO....                        ",
"                        OOOO..OOOOOO....                        ",
"                        OOOO..OOOOOO....                        ",
"                        OOOO..OOOOOO....                        ",
"                        OOOO..OOOOOO....                        ",
"                      OOOO....OOOOOO......                      ",
"                      OOOO....OOOOOO......                      ",
"                    OOOO......OOOOOO........                    ",
"                    OOOO......OOOOOO........                    "
};
