/* XPM */
static char *_a8d866c26644ccfbb682211dc044825teoQi8mRWHkKfZOc[] = {
/* columns rows colors chars-per-pixel */
"32 32 5 1 ",
"  c None",
". c black",
"X c #2D988F",
"o c #53ECDF",
"O c white",
/* pixels */
"                                ",
"                                ",
"                                ",
"                                ",
"                                ",
"            .........           ",
"         ...ooooooooo...        ",
"        .ooooooooooooooo.       ",
"      ..ooooooooooooooooo..     ",
"     .ooooooooooooooooooooo.    ",
"    .oooooOOoooooooooooooooo.   ",
"    .oooooOOoooooooooooooooo.   ",
"   .ooooooooooooooooooooooooo.  ",
"   .ooooooooooo......oooooooo.  ",
"   .oooooooooo.O....O.oooooooo. ",
"  .oooooooooo.OO....OO.ooooooo. ",
"  .oooooooooo.OO....OO.ooooooo. ",
"  .oooooooooo.OOOOOOOO.ooooooo. ",
"  .Xoooooooooo..OOOOO.oooooooo. ",
"  .Xooooooooooo......oooooooo.  ",
"  .XXoooooooooooooooooooooooo.  ",
"  .XXXoooooooooooooooooooooo.   ",
"  ..XXXooooooooooooooooooooo.   ",
"   ..XXXooooooooooooooooooo..   ",
"    ..XXXXXooooooooooooXXX..    ",
"     ..XXXXXXoooooooXXXXX..     ",
"      ...XXXXXXXXXXXXXX..       ",
"        ................        ",
"                                ",
"                                ",
"                                ",
"                                "
};
